G04*
G04 #@! TF.GenerationSoftware,Altium Limited,Altium Designer,22.8.2 (66)*
G04*
G04 Layer_Physical_Order=1*
G04 Layer_Color=255*
%FSLAX25Y25*%
%MOIN*%
G70*
G04*
G04 #@! TF.SameCoordinates,5BBA7AF8-D70B-405A-A25D-C681712A1337*
G04*
G04*
G04 #@! TF.FilePolarity,Positive*
G04*
G01*
G75*
%ADD12C,0.01000*%
G04:AMPARAMS|DCode=13|XSize=85.4mil|YSize=22.92mil|CornerRadius=11.46mil|HoleSize=0mil|Usage=FLASHONLY|Rotation=0.000|XOffset=0mil|YOffset=0mil|HoleType=Round|Shape=RoundedRectangle|*
%AMROUNDEDRECTD13*
21,1,0.08540,0.00000,0,0,0.0*
21,1,0.06248,0.02292,0,0,0.0*
1,1,0.02292,0.03124,0.00000*
1,1,0.02292,-0.03124,0.00000*
1,1,0.02292,-0.03124,0.00000*
1,1,0.02292,0.03124,0.00000*
%
%ADD13ROUNDEDRECTD13*%
%ADD14R,0.08540X0.02292*%
%ADD15R,0.02029X0.01860*%
%ADD16R,0.02362X0.01968*%
%ADD17R,0.01860X0.02029*%
%ADD18R,0.03150X0.03150*%
%ADD19R,0.03150X0.03150*%
%ADD20R,0.04921X0.06299*%
%ADD24C,0.06102*%
%ADD25C,0.05118*%
%ADD26R,0.05118X0.05118*%
%ADD28C,0.11811*%
%ADD29C,0.01968*%
D12*
X138059Y108000D02*
X142953D01*
X145953Y105000D01*
X136007Y92507D02*
Y105507D01*
X137172Y106672D02*
Y107113D01*
X136007Y105507D02*
X137172Y106672D01*
Y107113D02*
X138059Y108000D01*
X135000Y272965D02*
X135981Y271984D01*
Y268000D02*
Y271984D01*
X135000Y272965D02*
Y280000D01*
X220485Y285430D02*
Y287015D01*
X217803Y288697D02*
X218803D01*
X220485Y287015D01*
X215406Y291094D02*
X217803Y288697D01*
X222000Y279500D02*
X232604D01*
X218534Y282966D02*
X222000Y279500D01*
X218534Y282966D02*
Y284570D01*
X233034Y277856D02*
X233619Y277270D01*
X233034Y277856D02*
Y279070D01*
X233619Y277270D02*
X237270D01*
X240768Y280768D02*
Y283874D01*
X237270Y277270D02*
X240768Y280768D01*
Y283874D02*
X240780Y283887D01*
X222183Y298362D02*
X231138D01*
X240780Y283887D02*
Y288720D01*
X231138Y298362D02*
X240780Y288720D01*
X220619Y299926D02*
X222183Y298362D01*
X219574Y299926D02*
X220619D01*
X213000Y297500D02*
X220500D01*
X209500Y294000D02*
X213000Y297500D01*
X213787Y298287D01*
X220500Y297500D02*
X232000Y286000D01*
X218010Y301490D02*
X219574Y299926D01*
X223078Y301000D02*
X261578Y339500D01*
X218524Y302183D02*
Y303070D01*
Y302183D02*
X219707Y301000D01*
X223078D01*
X217000Y307500D02*
Y310500D01*
X213787Y298287D02*
Y304287D01*
X217000Y307500D01*
X267438Y337270D02*
X270543D01*
X271500Y338227D01*
X266676Y338032D02*
Y338484D01*
X266524Y338636D02*
Y339070D01*
X266676Y338032D02*
X267438Y337270D01*
X266524Y338636D02*
X266676Y338484D01*
X274500Y344000D02*
X315010D01*
X271500Y338227D02*
Y341000D01*
X274500Y344000D01*
X254783Y374500D02*
X270500D01*
X250534Y373817D02*
X251447Y374730D01*
X250534Y372930D02*
Y373817D01*
X247705Y371031D02*
Y374705D01*
X249547Y364500D02*
Y369189D01*
X254553Y374730D02*
X254783Y374500D01*
X251447Y374730D02*
X254553D01*
X247705Y374705D02*
X253425Y380425D01*
X247705Y371031D02*
X249547Y369189D01*
X265047Y346500D02*
X284047Y365500D01*
X334953D02*
X338453Y362000D01*
X284047Y365500D02*
X334953D01*
X345500Y340000D02*
X348500Y343000D01*
X353394D02*
X354500Y341894D01*
X348500Y343000D02*
X353394D01*
X352314Y331049D02*
X354500Y333235D01*
Y341894D01*
X326047Y326000D02*
X347265D01*
X351535Y330270D02*
X351553D01*
X323047Y329000D02*
X326047Y326000D01*
X347265D02*
X351535Y330270D01*
X351553D02*
X352314Y331031D01*
Y331049D01*
X335500Y254000D02*
X344000Y262500D01*
X320547Y257000D02*
X323547Y254000D01*
X335500D01*
X343066Y273875D02*
X344000Y272941D01*
Y262500D02*
Y272941D01*
X338840Y273875D02*
X343066D01*
X337492Y271826D02*
X338078Y272412D01*
X335873Y271826D02*
X337492D01*
X335047Y271000D02*
X335873Y271826D01*
X338078Y272412D02*
Y273113D01*
X338840Y273875D01*
X312500Y265047D02*
Y276953D01*
Y265047D02*
X320547Y257000D01*
X312500Y276953D02*
X314547Y279000D01*
X322024Y264407D02*
X322610Y264993D01*
X328835D02*
X329828Y264000D01*
X322024Y262930D02*
Y264407D01*
X322610Y264993D02*
X328835D01*
X175519Y152314D02*
Y187006D01*
X252976Y29356D02*
Y30570D01*
X252390Y28770D02*
X252976Y29356D01*
X248230Y28770D02*
X252390D01*
X213519Y63481D02*
Y72000D01*
Y63481D02*
X248230Y28770D01*
X128078Y19887D02*
Y23957D01*
X127519Y24516D02*
X128078Y23957D01*
X128840Y19125D02*
X128857D01*
X131032Y16951D01*
X127519Y24516D02*
Y33219D01*
X128078Y19887D02*
X128840Y19125D01*
X133000Y84500D02*
Y89500D01*
X140500Y77000D02*
X152000D01*
X133000Y84500D02*
X140500Y77000D01*
X151000Y64047D02*
Y76000D01*
X121453Y34500D02*
X151000Y64047D01*
Y76000D02*
X152000Y77000D01*
X209500Y82000D02*
X210976Y83476D01*
X207727Y82000D02*
X209500D01*
X211406Y85000D02*
X211575D01*
X206195Y83531D02*
X207727Y82000D01*
X210976Y83476D02*
Y84570D01*
X203625Y94595D02*
Y94613D01*
X204387Y95375D02*
X204404D01*
X203000Y86744D02*
X206195Y83549D01*
X203000Y93970D02*
X203625Y94595D01*
X203000Y86744D02*
Y93970D01*
X204404Y95375D02*
X211530Y102500D01*
X203625Y94613D02*
X204387Y95375D01*
X206195Y83531D02*
Y83549D01*
X229000Y118000D02*
Y151000D01*
X220024Y159976D02*
X229000Y151000D01*
X218430Y159976D02*
X220024D01*
X173547Y149000D02*
X177047Y145500D01*
X185500D02*
X195000Y155000D01*
X177047Y145500D02*
X185500D01*
X173000Y149547D02*
Y181000D01*
Y149547D02*
X173547Y149000D01*
X158773Y190000D02*
X175000D01*
X155532Y189695D02*
X158468D01*
X158773Y190000D01*
X154770Y190457D02*
X155532Y189695D01*
X202000Y201996D02*
Y204930D01*
X198930Y208000D02*
X202000Y204930D01*
X194193Y194189D02*
X202000Y201996D01*
X153500Y191744D02*
X154770Y190474D01*
Y190457D02*
Y190474D01*
X153500Y215165D02*
X156303Y217969D01*
X153500Y191744D02*
Y215165D01*
X162444Y214016D02*
X166440Y218012D01*
Y218697D01*
X170622Y222879D02*
Y222879D01*
X159613Y214016D02*
X162444D01*
X168516Y208586D02*
Y217542D01*
X175987Y225013D01*
X166440Y218697D02*
X170622Y222879D01*
X202212Y235222D02*
X202490Y235500D01*
X185500Y224000D02*
X192500D01*
X202212Y233712D02*
Y235222D01*
X192500Y224000D02*
X202212Y233712D01*
X202490Y235500D02*
X202575D01*
X163025Y231552D02*
X167005D01*
X161685Y237126D02*
Y238185D01*
X161672Y237113D02*
X161685Y237126D01*
X162452Y232125D02*
X163025Y231552D01*
X161672Y232887D02*
Y237113D01*
Y232887D02*
X162434Y232125D01*
X162452D01*
X161685Y238185D02*
X163168Y239668D01*
Y249785D01*
X135000Y302000D02*
X142000Y309000D01*
X135000Y280000D02*
Y302000D01*
X142966Y283966D02*
Y286070D01*
X135000Y280000D02*
X139000D01*
X142966Y283966D01*
X156501Y315875D02*
X156519D01*
X157500Y303535D02*
Y314894D01*
X147465Y293500D02*
X157500Y303535D01*
X156519Y315875D02*
X157500Y314894D01*
X155876Y316500D02*
X156501Y315875D01*
X102024Y343930D02*
Y345524D01*
X105315Y348815D01*
X107815D01*
X40808Y262211D02*
Y264692D01*
X27500Y278000D02*
X40808Y264692D01*
Y262211D02*
X41019Y262000D01*
X27500Y264930D02*
Y272500D01*
X27000Y264500D02*
X27070D01*
X27500Y264930D01*
X21505Y267142D02*
X21595Y267232D01*
X21505Y262949D02*
X24442Y260012D01*
X21595Y267232D02*
Y272500D01*
X21505Y262949D02*
Y267142D01*
X25120Y262000D02*
X41019D01*
X24534Y262586D02*
Y264070D01*
Y262586D02*
X25120Y262000D01*
X30465Y357770D02*
X31235Y357000D01*
X29534Y358683D02*
X30447Y357770D01*
X30465D01*
X31235Y357000D02*
X53582D01*
X29534Y358683D02*
Y359570D01*
X53582Y357000D02*
X69582Y373000D01*
X27500Y367000D02*
X36814Y376313D01*
X88814D02*
X92500Y380000D01*
X36814Y376313D02*
X88814D01*
X263500Y339500D02*
X266094D01*
X266524Y339070D01*
X315010Y344000D02*
X324010Y335000D01*
X198715Y213000D02*
X202000Y209715D01*
Y209500D02*
Y209715D01*
X195806Y213000D02*
X198715D01*
X214987Y201500D02*
X266500D01*
X201016Y215471D02*
X214987Y201500D01*
X198930Y218000D02*
X201016Y215914D01*
X200000Y221500D02*
X203315Y218185D01*
Y216685D02*
X203500Y216500D01*
X192681Y218000D02*
X198930D01*
X203315Y216685D02*
Y218185D01*
X201016Y215471D02*
Y215914D01*
X179500Y218646D02*
Y221500D01*
X177194Y218000D02*
X178854D01*
X179500Y218646D01*
X174070Y218000D02*
X177194D01*
X156500Y214032D02*
X159597D01*
X159613Y214016D01*
X160738Y216500D02*
X161000D01*
X156500Y217969D02*
X159269D01*
X156303D02*
X156500D01*
X159269D02*
X160738Y216500D01*
X176947Y212753D02*
X177194Y213000D01*
X171515Y212753D02*
X176947D01*
X171262Y212500D02*
X171515Y212753D01*
X171000Y212500D02*
X171262D01*
X168376Y192484D02*
X178847D01*
X179317Y192010D02*
X180463Y193156D01*
X179317Y192010D02*
Y192014D01*
X167901Y192010D02*
X168376Y192484D01*
X178847D02*
X179317Y192014D01*
X180463Y193156D02*
X180807Y193500D01*
X176000Y197500D02*
X176185Y197315D01*
X177681D01*
X169102Y208000D02*
X177194D01*
X169500Y208000D02*
X169500Y208000D01*
X169500Y205500D02*
Y208000D01*
X168516Y208586D02*
X169102Y208000D01*
X193500Y187762D02*
X194193Y188455D01*
X193500Y187500D02*
Y187762D01*
X194193Y188455D02*
Y193500D01*
X190232Y181266D02*
Y193086D01*
X180319Y203000D02*
X190232Y193086D01*
Y181266D02*
X204500Y166998D01*
X179661Y191665D02*
Y192354D01*
X177484Y189488D02*
X179661Y191665D01*
X177484Y188971D02*
Y189488D01*
X157000Y192010D02*
X167901D01*
X175519Y187006D02*
X177484Y188971D01*
X179661Y192354D02*
X180807Y193500D01*
X315519Y268406D02*
X321425Y262500D01*
X321510D01*
X315519Y268406D02*
Y270500D01*
X336425Y264000D02*
X336510D01*
X329828D02*
X336425D01*
X331000Y269425D02*
X336425Y264000D01*
X331000Y269425D02*
Y323000D01*
X335481Y343954D02*
Y350993D01*
Y343954D02*
X346935Y332500D01*
X343435Y329000D02*
X346935Y332500D01*
X347019D01*
X339500Y329000D02*
X343435D01*
X335481Y350993D02*
Y355000D01*
X324010Y339522D02*
X335481Y350993D01*
X324010Y335000D02*
Y339522D01*
X250104Y372500D02*
X250534Y372930D01*
X250019Y372500D02*
X250104D01*
X261578Y339500D02*
X263500D01*
X270500Y358500D02*
Y374500D01*
X264500Y352500D02*
X270500Y358500D01*
X260500Y342500D02*
X263500Y339500D01*
X218094Y303500D02*
X218524Y303070D01*
X218010Y303500D02*
X218094D01*
X218010Y301490D02*
Y303500D01*
X232604Y279500D02*
X233034Y279070D01*
X218019Y285000D02*
X218104D01*
X218534Y284570D01*
X203005Y236015D02*
X218019Y251029D01*
Y285000D01*
X202575Y235500D02*
X203005Y235930D01*
Y236015D01*
X170453Y235000D02*
X187453Y218000D01*
X192681D01*
X151990Y96000D02*
X152075D01*
X152505Y96430D01*
Y96514D01*
X177000Y121010D01*
Y141500D01*
X142990Y84757D02*
X151803Y93570D01*
Y95813D01*
X151990Y96000D01*
X142990Y82000D02*
Y84757D01*
X143075Y82000D02*
X144889Y80185D01*
X142990Y82000D02*
X143075D01*
X144889Y80185D02*
X146315D01*
X146500Y80000D01*
X122000Y50000D02*
X145000Y73000D01*
X122000Y39500D02*
Y50000D01*
X126000Y35000D02*
X154019Y63019D01*
Y69500D01*
X120880Y39685D02*
X121815D01*
X117481Y43000D02*
X117565D01*
X120880Y39685D01*
X121815D02*
X122000Y39500D01*
X126000Y34738D02*
X127519Y33219D01*
X126000Y34738D02*
Y35000D01*
X131032Y16951D02*
X131049D01*
X133990Y14010D01*
Y12000D02*
Y14010D01*
X125453Y12000D02*
X131010D01*
X130500Y22453D02*
Y28500D01*
Y22453D02*
X130953Y22000D01*
X114500Y39853D02*
Y43000D01*
X115547Y34500D02*
Y38806D01*
X114500Y39853D02*
X115547Y38806D01*
X157000Y76095D02*
X157905Y77000D01*
X157000Y69500D02*
Y76095D01*
X138906Y83020D02*
Y89500D01*
Y83020D02*
X139925Y82000D01*
X140010D01*
X140047Y105000D02*
X141122Y103925D01*
Y103803D02*
Y103925D01*
X148925Y96000D02*
X149010D01*
X141122Y103803D02*
X148925Y96000D01*
X133000Y89500D02*
X136007Y92507D01*
X145953Y105000D02*
X173547Y132595D01*
X324575Y262500D02*
X326453Y260622D01*
Y257000D02*
Y260622D01*
X324490Y262500D02*
X324575D01*
X340005Y264514D02*
X340953Y265462D01*
X340005Y264430D02*
Y264514D01*
X339490Y264000D02*
X339575D01*
X340005Y264430D01*
X340953Y265462D02*
Y271000D01*
X318500Y270500D02*
Y277047D01*
X320453Y279000D01*
X350000Y338595D02*
X351406Y340000D01*
X350000Y332500D02*
Y338595D01*
X328953Y329000D02*
Y333122D01*
X327075Y335000D02*
X328953Y333122D01*
X326990Y335000D02*
X327075D01*
X332500Y361953D02*
X332547Y362000D01*
X332500Y355000D02*
Y361953D01*
X268990Y344538D02*
X270953Y346500D01*
X268990Y339500D02*
Y344538D01*
X220990Y303500D02*
Y308585D01*
X222905Y310500D01*
X235500Y283594D02*
X237906Y286000D01*
X235500Y279500D02*
Y283594D01*
X220485Y285430D02*
X220916Y285000D01*
X221000D01*
X215406Y291094D02*
Y294000D01*
X209500Y261953D02*
Y294000D01*
X188547Y241000D02*
X209500Y261953D01*
X253000Y346500D02*
X265047D01*
X217000Y310500D02*
X253000Y346500D01*
X273481Y374500D02*
X273565D01*
X274905Y375840D02*
Y381500D01*
X273565Y374500D02*
X274905Y375840D01*
X253000Y366953D02*
X255453Y364500D01*
X253000Y366953D02*
Y372500D01*
X253425Y380425D02*
X267925D01*
X249547Y362000D02*
Y364500D01*
X267925Y380425D02*
X269000Y381500D01*
X249547Y362000D02*
X265047Y346500D01*
X345500Y340000D02*
Y354953D01*
X338453Y362000D02*
X345500Y354953D01*
X314547Y279000D02*
Y320500D01*
X323047Y329000D01*
X173547Y132595D02*
Y149000D01*
X121453Y25594D02*
X125047Y22000D01*
X121453Y25594D02*
Y34500D01*
X119547Y12000D02*
Y16500D01*
X125047Y22000D01*
X169435Y242500D02*
X169519D01*
X164547Y235000D02*
Y237613D01*
X169435Y242500D01*
X137953Y275000D02*
X163168Y249785D01*
X167005Y231552D02*
X170453Y235000D01*
X44000Y257500D02*
Y262000D01*
Y257500D02*
X45500Y256000D01*
X52990Y273500D02*
Y279085D01*
X54405Y280500D01*
X41019Y264594D02*
X49925Y273500D01*
X50010D01*
X41019Y262000D02*
Y264594D01*
X24104Y264500D02*
X24534Y264070D01*
X24019Y264500D02*
X24104D01*
X24442Y260012D02*
X35583D01*
X39595Y256000D01*
X42669Y252925D01*
X28084Y329000D02*
X30738D01*
X28000D02*
X28084D01*
X24019Y264500D02*
X24032Y264513D01*
X30738Y329000D02*
X32238Y327500D01*
X32500D01*
X32000Y365595D02*
X33406Y367000D01*
X32000Y360000D02*
Y365595D01*
X45981Y325519D02*
Y331500D01*
Y325519D02*
X47000Y324500D01*
X20528Y333407D02*
Y333425D01*
X19453Y334500D02*
X20528Y333425D01*
X24935Y329000D02*
X25019D01*
X20528Y333407D02*
X24935Y329000D01*
X42916Y331500D02*
X43000D01*
X30584D02*
X42916D01*
X28084Y329000D02*
X30584Y331500D01*
X29019Y345396D02*
Y360000D01*
Y345396D02*
X42916Y331500D01*
X69582Y373000D02*
X94010D01*
Y362990D02*
X108000Y349000D01*
X94010Y362990D02*
Y373000D01*
X96990D02*
Y378585D01*
X98405Y380000D01*
X123490Y356500D02*
Y361038D01*
X124953Y362500D01*
X104490Y339462D02*
Y343500D01*
Y339462D02*
X105953Y338000D01*
X101510Y343500D02*
X101594D01*
X102024Y343930D01*
X107815Y348815D02*
X108000Y349000D01*
X113061Y339837D02*
Y356513D01*
X119047Y362500D01*
X108149Y334925D02*
X113061Y339837D01*
X116500Y351500D02*
X116685Y351685D01*
X120425Y356500D02*
X120510D01*
X116685Y352760D02*
X120425Y356500D01*
X116685Y351685D02*
Y352760D01*
X120510Y338490D02*
X143000Y316000D01*
X120510Y338490D02*
Y356500D01*
X144500Y306500D02*
X149019D01*
X142000Y309000D02*
X144500Y306500D01*
X152000D02*
Y310595D01*
X154405Y313000D01*
X148500D02*
X152000Y316500D01*
X155876D01*
X144953Y293500D02*
X147465D01*
X140500Y286500D02*
Y292047D01*
X139047Y293500D02*
X140500Y292047D01*
X132916Y268000D02*
X133000D01*
X132047Y268868D02*
Y275000D01*
Y268868D02*
X132916Y268000D01*
X142966Y286070D02*
X143396Y286500D01*
X148500Y279000D02*
X172500Y255000D01*
Y242500D02*
Y255000D01*
X199425Y235500D02*
X199510D01*
X194453Y241000D02*
X198995Y236458D01*
Y235930D02*
Y236458D01*
Y235930D02*
X199425Y235500D01*
X182185Y234638D02*
X188547Y241000D01*
X182185Y234185D02*
Y234638D01*
X182000Y234000D02*
X182185Y234185D01*
X180899D02*
X181815D01*
X172500Y242500D02*
X172584D01*
X180899Y234185D01*
X181815D02*
X182000Y234000D01*
X180319Y203000D02*
X186500Y209181D01*
Y211819D01*
X192681Y218000D01*
X194193Y193500D02*
Y194189D01*
X195806Y208000D02*
X198930D01*
X171756Y215685D02*
X174070Y218000D01*
X171000Y215500D02*
X171185Y215685D01*
X171756D01*
X180807Y193500D02*
Y194189D01*
X177681Y197315D02*
X180807Y194189D01*
X156500Y206981D02*
Y214032D01*
X178584Y156000D02*
X179453Y155132D01*
X178500Y156000D02*
X178584D01*
X179453Y149000D02*
Y155132D01*
X217570Y161005D02*
X218000Y160575D01*
X217485Y161005D02*
X217570D01*
X218000Y160490D02*
Y160575D01*
X214990Y163500D02*
X217485Y161005D01*
X212500Y163500D02*
X214990D01*
X204500Y148547D02*
X209122D01*
X218000Y157425D02*
Y157510D01*
X209122Y148547D02*
X218000Y157425D01*
X211530Y102500D02*
X221925D01*
X218685Y105740D02*
Y106815D01*
X221925Y102500D02*
X222010D01*
X218685Y105740D02*
X221925Y102500D01*
X218500Y107000D02*
X218685Y106815D01*
X201425Y138480D02*
Y151378D01*
Y138480D02*
X229906Y110000D01*
X201425Y151378D02*
X204500Y154453D01*
X224990Y102500D02*
Y109010D01*
X224000Y110000D02*
X224990Y109010D01*
X210976Y84570D02*
X211406Y85000D01*
X206500Y92500D02*
X208510Y90490D01*
Y85000D02*
Y90490D01*
X213519Y72000D02*
Y83056D01*
X211575Y85000D02*
X213519Y83056D01*
X216500Y72000D02*
Y75953D01*
X220047Y79500D01*
X253406Y31000D02*
X253490D01*
X252976Y30570D02*
X253406Y31000D01*
X250510D02*
Y36990D01*
X249000Y38500D02*
X250510Y36990D01*
X246435Y9000D02*
X246519D01*
X243762D02*
X246435D01*
X252000Y19238D02*
Y19487D01*
X245500Y16500D02*
X253490Y24490D01*
Y31000D01*
X230594Y19500D02*
X234010Y16085D01*
Y12000D02*
Y16085D01*
X251075Y17075D02*
Y18313D01*
X252000Y19238D01*
X250000Y16000D02*
X251075Y17075D01*
X252738Y9000D02*
X253738Y10000D01*
X254000D01*
X249500Y9000D02*
X252738D01*
X252831Y12925D02*
X255906Y16000D01*
X247804Y12925D02*
X252831D01*
X242000Y14000D02*
X246729D01*
X247804Y12925D01*
X236990Y12000D02*
X243435D01*
X246435Y9000D01*
X236500Y19500D02*
X242000Y14000D01*
X255980Y33449D02*
X256005Y33425D01*
Y25299D02*
Y33425D01*
X255906Y16000D02*
Y25200D01*
X254906Y38500D02*
X255980Y37425D01*
Y33449D02*
Y37425D01*
X255906Y25200D02*
X256005Y25299D01*
X225953Y79500D02*
X254906Y50547D01*
Y38500D02*
Y50547D01*
X212405Y92500D02*
X224331Y80575D01*
X224878D01*
X225953Y79500D01*
X229906Y83453D02*
Y110000D01*
X225953Y79500D02*
X229906Y83453D01*
X204500Y154453D02*
Y166998D01*
X177194Y203000D02*
X180319D01*
X156500Y203916D02*
Y204000D01*
Y195575D02*
Y203916D01*
X157000Y194990D02*
Y195075D01*
X156500Y195575D02*
X157000Y195075D01*
X156500Y203916D02*
X157416Y203000D01*
X177194D01*
X137953Y275000D02*
X145995Y283043D01*
X145000Y289184D02*
X145995Y288189D01*
Y283043D02*
Y288189D01*
X145000Y289184D02*
Y293453D01*
X144953Y293500D02*
X145000Y293453D01*
X103122Y334925D02*
X125047Y313000D01*
X100047Y338000D02*
X103122Y334925D01*
X125047Y313000D02*
X148500D01*
X103122Y334925D02*
X108149D01*
X117972Y363575D02*
X119047Y362500D01*
X117972Y363575D02*
Y365704D01*
X100602Y383075D02*
X117972Y365704D01*
X95575Y383075D02*
X100602D01*
X92500Y380000D02*
X95575Y383075D01*
X26425Y365925D02*
X27500Y367000D01*
X13547Y334500D02*
X26425Y347378D01*
Y365925D01*
X13547Y334500D02*
X23547Y324500D01*
X41094D01*
X48500Y280500D02*
Y317094D01*
X41094Y324500D02*
X48500Y317094D01*
X51575Y283575D02*
X56602D01*
X48500Y280500D02*
X51575Y283575D01*
X56602D02*
X57480Y282696D01*
X47696Y252925D02*
X57480Y262709D01*
X42669Y252925D02*
X47696D01*
X57480Y262709D02*
Y282696D01*
D13*
X195806Y218000D02*
D03*
Y213000D02*
D03*
Y208000D02*
D03*
Y203000D02*
D03*
X177194D02*
D03*
Y208000D02*
D03*
Y213000D02*
D03*
D14*
Y218000D02*
D03*
D15*
X130500Y28500D02*
D03*
X127519D02*
D03*
X140010Y82000D02*
D03*
X142990D02*
D03*
X221000Y285000D02*
D03*
X218019D02*
D03*
X253000Y372500D02*
D03*
X250019D02*
D03*
X350000Y332500D02*
D03*
X347019D02*
D03*
X339490Y264000D02*
D03*
X336510D02*
D03*
X324490Y262500D02*
D03*
X321510D02*
D03*
X318500Y270500D02*
D03*
X315519D02*
D03*
X326990Y335000D02*
D03*
X324010D02*
D03*
X332500Y355000D02*
D03*
X335481D02*
D03*
X268990Y339500D02*
D03*
X266010D02*
D03*
X273481Y374500D02*
D03*
X270500D02*
D03*
X220990Y303500D02*
D03*
X218010D02*
D03*
X199510Y235500D02*
D03*
X202490D02*
D03*
X157000Y69500D02*
D03*
X154019D02*
D03*
X131010Y12000D02*
D03*
X133990D02*
D03*
X235500Y279500D02*
D03*
X232519D02*
D03*
X114500Y43000D02*
D03*
X117481D02*
D03*
X149010Y96000D02*
D03*
X151990D02*
D03*
X178500Y156000D02*
D03*
X175519D02*
D03*
X45981Y331500D02*
D03*
X43000D02*
D03*
X32000Y360000D02*
D03*
X29019D02*
D03*
X44000Y262000D02*
D03*
X41019D02*
D03*
X52990Y273500D02*
D03*
X50010D02*
D03*
X27000Y264500D02*
D03*
X24019D02*
D03*
X25019Y329000D02*
D03*
X28000D02*
D03*
X96990Y373000D02*
D03*
X94010D02*
D03*
X123490Y356500D02*
D03*
X120510D02*
D03*
X104490Y343500D02*
D03*
X101510D02*
D03*
X140500Y286500D02*
D03*
X143481D02*
D03*
X152000Y306500D02*
D03*
X149019D02*
D03*
X133000Y268000D02*
D03*
X135981D02*
D03*
X169519Y242500D02*
D03*
X172500D02*
D03*
X216500Y72000D02*
D03*
X213519D02*
D03*
X208510Y85000D02*
D03*
X211490D02*
D03*
X224990Y102500D02*
D03*
X222010D02*
D03*
X249500Y9000D02*
D03*
X246519D02*
D03*
X234010Y12000D02*
D03*
X236990D02*
D03*
X250510Y31000D02*
D03*
X253490D02*
D03*
D16*
X156500Y214032D02*
D03*
Y217969D02*
D03*
D17*
X218000Y157510D02*
D03*
Y160490D02*
D03*
X156500Y204000D02*
D03*
Y206981D02*
D03*
X157000Y192010D02*
D03*
Y194990D02*
D03*
D18*
X125047Y22000D02*
D03*
X130953D02*
D03*
X133000Y89500D02*
D03*
X138906D02*
D03*
X209500Y294000D02*
D03*
X215406D02*
D03*
X249547Y364500D02*
D03*
X255453D02*
D03*
X345500Y340000D02*
D03*
X351406D02*
D03*
X335047Y271000D02*
D03*
X340953D02*
D03*
X320547Y257000D02*
D03*
X326453D02*
D03*
X314547Y279000D02*
D03*
X320453D02*
D03*
X323047Y329000D02*
D03*
X328953D02*
D03*
X338453Y362000D02*
D03*
X332547D02*
D03*
X265047Y346500D02*
D03*
X270953D02*
D03*
X269000Y381500D02*
D03*
X274905D02*
D03*
X217000Y310500D02*
D03*
X222905D02*
D03*
X188547Y241000D02*
D03*
X194453D02*
D03*
X152000Y77000D02*
D03*
X157905D02*
D03*
X119547Y12000D02*
D03*
X125453D02*
D03*
X232000Y286000D02*
D03*
X237906D02*
D03*
X121453Y34500D02*
D03*
X115547D02*
D03*
X145953Y105000D02*
D03*
X140047D02*
D03*
X173547Y149000D02*
D03*
X179453D02*
D03*
X41094Y324500D02*
D03*
X47000D02*
D03*
X27500Y367000D02*
D03*
X33406D02*
D03*
X39595Y256000D02*
D03*
X45500D02*
D03*
X48500Y280500D02*
D03*
X54405D02*
D03*
X21595Y272500D02*
D03*
X27500D02*
D03*
X13547Y334500D02*
D03*
X19453D02*
D03*
X92500Y380000D02*
D03*
X98405D02*
D03*
X119047Y362500D02*
D03*
X124953D02*
D03*
X100047Y338000D02*
D03*
X105953D02*
D03*
X144953Y293500D02*
D03*
X139047D02*
D03*
X148500Y313000D02*
D03*
X154405D02*
D03*
X137953Y275000D02*
D03*
X132047D02*
D03*
X170453Y235000D02*
D03*
X164547D02*
D03*
X225953Y79500D02*
D03*
X220047D02*
D03*
X212405Y92500D02*
D03*
X206500D02*
D03*
X229906Y110000D02*
D03*
X224000D02*
D03*
X255906Y16000D02*
D03*
X250000D02*
D03*
X236500Y19500D02*
D03*
X230594D02*
D03*
X254906Y38500D02*
D03*
X249000D02*
D03*
D19*
X204500Y154453D02*
D03*
Y148547D02*
D03*
D20*
X180807Y193500D02*
D03*
X194193D02*
D03*
D24*
X266500Y225122D02*
D03*
Y193626D02*
D03*
D25*
Y217248D02*
D03*
Y209374D02*
D03*
D26*
Y201500D02*
D03*
D28*
X295000Y385000D02*
D03*
X70000D02*
D03*
D29*
X175519Y152314D02*
D03*
X170622Y222879D02*
D03*
X202000Y209500D02*
D03*
X203500Y216500D02*
D03*
X200000Y221500D02*
D03*
X175987Y225013D02*
D03*
X179500Y221500D02*
D03*
X161000Y216500D02*
D03*
X171000Y212500D02*
D03*
X176000Y197500D02*
D03*
X193500Y187500D02*
D03*
X175000Y190000D02*
D03*
X331000Y323000D02*
D03*
X339500Y329000D02*
D03*
X264500Y352500D02*
D03*
X260500Y342500D02*
D03*
X185500Y224000D02*
D03*
X177000Y141500D02*
D03*
X146500Y80000D02*
D03*
X145000Y73000D02*
D03*
X122000Y39500D02*
D03*
X126000Y35000D02*
D03*
X27500Y278000D02*
D03*
X32500Y327500D02*
D03*
X108000Y349000D02*
D03*
X116500Y351500D02*
D03*
X143000Y316000D02*
D03*
X142000Y309000D02*
D03*
X135000Y280000D02*
D03*
X148500Y279000D02*
D03*
X182000Y234000D02*
D03*
X171000Y215500D02*
D03*
X169500Y205500D02*
D03*
X173000Y181000D02*
D03*
X195000Y155000D02*
D03*
X212500Y163500D02*
D03*
X229000Y118000D02*
D03*
X218500Y107000D02*
D03*
X252000Y19487D02*
D03*
X245500Y16500D02*
D03*
X243000Y8500D02*
D03*
X254000Y10000D02*
D03*
M02*
