G04*
G04 #@! TF.GenerationSoftware,Altium Limited,Altium Designer,22.8.2 (66)*
G04*
G04 Layer_Color=2752767*
%FSLAX25Y25*%
%MOIN*%
G70*
G04*
G04 #@! TF.SameCoordinates,5BBA7AF8-D70B-405A-A25D-C681712A1337*
G04*
G04*
G04 #@! TF.FilePolarity,Positive*
G04*
G01*
G75*
%ADD32C,0.00200*%
%ADD33C,0.00267*%
D32*
X295000Y384200D02*
X295400Y384600D01*
X295800D01*
X295400Y385000D01*
X295800Y385400D01*
X295400D01*
X295000Y385800D01*
X294600Y385400D01*
X294200D01*
X294600Y385000D01*
X294200Y384600D01*
X294600D01*
X295000Y384200D01*
X70000D02*
X70400Y384600D01*
X70800D01*
X70400Y385000D01*
X70800Y385400D01*
X70400D01*
X70000Y385800D01*
X69600Y385400D01*
X69200D01*
X69600Y385000D01*
X69200Y384600D01*
X69600D01*
X70000Y384200D01*
X265700Y224322D02*
Y225922D01*
X267300D01*
Y224322D01*
X265700D01*
Y192826D02*
Y194426D01*
X267300D01*
Y192826D01*
X265700D01*
X175519Y151514D02*
X174719Y153114D01*
X176319D01*
X175519Y151514D01*
X170622Y222078D02*
X169822Y223678D01*
X171422D01*
X170622Y222078D01*
X202000Y208700D02*
X201200Y210300D01*
X202800D01*
X202000Y208700D01*
X203500Y215700D02*
X202700Y217300D01*
X204300D01*
X203500Y215700D01*
X200000Y220700D02*
X199200Y222300D01*
X200800D01*
X200000Y220700D01*
X175987Y224213D02*
X175187Y225813D01*
X176787D01*
X175987Y224213D01*
X179500Y220700D02*
X178700Y222300D01*
X180300D01*
X179500Y220700D01*
X161000Y215700D02*
X160200Y217300D01*
X161800D01*
X161000Y215700D01*
X171000Y211700D02*
X170200Y213300D01*
X171800D01*
X171000Y211700D01*
X176000Y196700D02*
X175200Y198300D01*
X176800D01*
X176000Y196700D01*
X193500Y186700D02*
X192700Y188300D01*
X194300D01*
X193500Y186700D01*
X175000Y189200D02*
X174200Y190800D01*
X175800D01*
X175000Y189200D01*
X331000Y322200D02*
X330200Y323800D01*
X331800D01*
X331000Y322200D01*
X339500Y328200D02*
X338700Y329800D01*
X340300D01*
X339500Y328200D01*
X264500Y351700D02*
X263700Y353300D01*
X265300D01*
X264500Y351700D01*
X260500Y341700D02*
X259700Y343300D01*
X261300D01*
X260500Y341700D01*
X185500Y223200D02*
X184700Y224800D01*
X186300D01*
X185500Y223200D01*
X177000Y140700D02*
X176200Y142300D01*
X177800D01*
X177000Y140700D01*
X146500Y79200D02*
X145700Y80800D01*
X147300D01*
X146500Y79200D01*
X145000Y72200D02*
X144200Y73800D01*
X145800D01*
X145000Y72200D01*
X122000Y38700D02*
X121200Y40300D01*
X122800D01*
X122000Y38700D01*
X126000Y34200D02*
X125200Y35800D01*
X126800D01*
X126000Y34200D01*
X27500Y277200D02*
X26700Y278800D01*
X28300D01*
X27500Y277200D01*
X32500Y326700D02*
X31700Y328300D01*
X33300D01*
X32500Y326700D01*
X108000Y348200D02*
X107200Y349800D01*
X108800D01*
X108000Y348200D01*
X116500Y350700D02*
X115700Y352300D01*
X117300D01*
X116500Y350700D01*
X143000Y315200D02*
X142200Y316800D01*
X143800D01*
X143000Y315200D01*
X142000Y308200D02*
X141200Y309800D01*
X142800D01*
X142000Y308200D01*
X135000Y279200D02*
X134200Y280800D01*
X135800D01*
X135000Y279200D01*
X148500Y278200D02*
X147700Y279800D01*
X149300D01*
X148500Y278200D01*
X182000Y233200D02*
X181200Y234800D01*
X182800D01*
X182000Y233200D01*
X171000Y214700D02*
X170200Y216300D01*
X171800D01*
X171000Y214700D01*
X169500Y204700D02*
X168700Y206300D01*
X170300D01*
X169500Y204700D01*
X173000Y180200D02*
X172200Y181800D01*
X173800D01*
X173000Y180200D01*
X195000Y154200D02*
X194200Y155800D01*
X195800D01*
X195000Y154200D01*
X212500Y162700D02*
X211700Y164300D01*
X213300D01*
X212500Y162700D01*
X229000Y117200D02*
X228200Y118800D01*
X229800D01*
X229000Y117200D01*
X218500Y106200D02*
X217700Y107800D01*
X219300D01*
X218500Y106200D01*
X252000Y18687D02*
X251200Y20287D01*
X252800D01*
X252000Y18687D01*
X245500Y15700D02*
X244700Y17300D01*
X246300D01*
X245500Y15700D01*
X243000Y7700D02*
X242200Y9300D01*
X243800D01*
X243000Y7700D01*
X254000Y9200D02*
X253200Y10800D01*
X254800D01*
X254000Y9200D01*
D33*
X267300Y217248D02*
X266747Y218009D01*
X265853Y217718D01*
Y216778D01*
X266747Y216487D01*
X267300Y217248D01*
Y209374D02*
X266747Y210135D01*
X265853Y209844D01*
Y208904D01*
X266747Y208613D01*
X267300Y209374D01*
Y201500D02*
X266747Y202261D01*
X265853Y201970D01*
Y201030D01*
X266747Y200739D01*
X267300Y201500D01*
M02*
