G04*
G04 #@! TF.GenerationSoftware,Altium Limited,Altium Designer,22.8.2 (66)*
G04*
G04 Layer_Color=255*
%FSLAX25Y25*%
%MOIN*%
G70*
G04*
G04 #@! TF.SameCoordinates,5BBA7AF8-D70B-405A-A25D-C681712A1337*
G04*
G04*
G04 #@! TF.FilePolarity,Positive*
G04*
G01*
G75*
G04:AMPARAMS|DCode=13|XSize=85.4mil|YSize=22.92mil|CornerRadius=11.46mil|HoleSize=0mil|Usage=FLASHONLY|Rotation=0.000|XOffset=0mil|YOffset=0mil|HoleType=Round|Shape=RoundedRectangle|*
%AMROUNDEDRECTD13*
21,1,0.08540,0.00000,0,0,0.0*
21,1,0.06248,0.02292,0,0,0.0*
1,1,0.02292,0.03124,0.00000*
1,1,0.02292,-0.03124,0.00000*
1,1,0.02292,-0.03124,0.00000*
1,1,0.02292,0.03124,0.00000*
%
%ADD13ROUNDEDRECTD13*%
%ADD14R,0.08540X0.02292*%
%ADD15R,0.02029X0.01860*%
%ADD16R,0.02362X0.01968*%
%ADD17R,0.01860X0.02029*%
%ADD18R,0.03150X0.03150*%
%ADD19R,0.03150X0.03150*%
%ADD20R,0.04921X0.06299*%
%ADD24C,0.06102*%
%ADD25C,0.05118*%
%ADD26R,0.05118X0.05118*%
%ADD28C,0.11811*%
D13*
X195806Y218000D02*
D03*
Y213000D02*
D03*
Y208000D02*
D03*
Y203000D02*
D03*
X177194D02*
D03*
Y208000D02*
D03*
Y213000D02*
D03*
D14*
Y218000D02*
D03*
D15*
X130500Y28500D02*
D03*
X127519D02*
D03*
X140010Y82000D02*
D03*
X142990D02*
D03*
X221000Y285000D02*
D03*
X218019D02*
D03*
X253000Y372500D02*
D03*
X250019D02*
D03*
X350000Y332500D02*
D03*
X347019D02*
D03*
X339490Y264000D02*
D03*
X336510D02*
D03*
X324490Y262500D02*
D03*
X321510D02*
D03*
X318500Y270500D02*
D03*
X315519D02*
D03*
X326990Y335000D02*
D03*
X324010D02*
D03*
X332500Y355000D02*
D03*
X335481D02*
D03*
X268990Y339500D02*
D03*
X266010D02*
D03*
X273481Y374500D02*
D03*
X270500D02*
D03*
X220990Y303500D02*
D03*
X218010D02*
D03*
X199510Y235500D02*
D03*
X202490D02*
D03*
X157000Y69500D02*
D03*
X154019D02*
D03*
X131010Y12000D02*
D03*
X133990D02*
D03*
X235500Y279500D02*
D03*
X232519D02*
D03*
X114500Y43000D02*
D03*
X117481D02*
D03*
X149010Y96000D02*
D03*
X151990D02*
D03*
X178500Y156000D02*
D03*
X175519D02*
D03*
X45981Y331500D02*
D03*
X43000D02*
D03*
X32000Y360000D02*
D03*
X29019D02*
D03*
X44000Y262000D02*
D03*
X41019D02*
D03*
X52990Y273500D02*
D03*
X50010D02*
D03*
X27000Y264500D02*
D03*
X24019D02*
D03*
X25019Y329000D02*
D03*
X28000D02*
D03*
X96990Y373000D02*
D03*
X94010D02*
D03*
X123490Y356500D02*
D03*
X120510D02*
D03*
X104490Y343500D02*
D03*
X101510D02*
D03*
X140500Y286500D02*
D03*
X143481D02*
D03*
X152000Y306500D02*
D03*
X149019D02*
D03*
X133000Y268000D02*
D03*
X135981D02*
D03*
X169519Y242500D02*
D03*
X172500D02*
D03*
X216500Y72000D02*
D03*
X213519D02*
D03*
X208510Y85000D02*
D03*
X211490D02*
D03*
X224990Y102500D02*
D03*
X222010D02*
D03*
X249500Y9000D02*
D03*
X246519D02*
D03*
X234010Y12000D02*
D03*
X236990D02*
D03*
X250510Y31000D02*
D03*
X253490D02*
D03*
D16*
X156500Y214032D02*
D03*
Y217969D02*
D03*
D17*
X218000Y157510D02*
D03*
Y160490D02*
D03*
X156500Y204000D02*
D03*
Y206981D02*
D03*
X157000Y192010D02*
D03*
Y194990D02*
D03*
D18*
X125047Y22000D02*
D03*
X130953D02*
D03*
X133000Y89500D02*
D03*
X138906D02*
D03*
X209500Y294000D02*
D03*
X215406D02*
D03*
X249547Y364500D02*
D03*
X255453D02*
D03*
X345500Y340000D02*
D03*
X351406D02*
D03*
X335047Y271000D02*
D03*
X340953D02*
D03*
X320547Y257000D02*
D03*
X326453D02*
D03*
X314547Y279000D02*
D03*
X320453D02*
D03*
X323047Y329000D02*
D03*
X328953D02*
D03*
X338453Y362000D02*
D03*
X332547D02*
D03*
X265047Y346500D02*
D03*
X270953D02*
D03*
X269000Y381500D02*
D03*
X274905D02*
D03*
X217000Y310500D02*
D03*
X222905D02*
D03*
X188547Y241000D02*
D03*
X194453D02*
D03*
X152000Y77000D02*
D03*
X157905D02*
D03*
X119547Y12000D02*
D03*
X125453D02*
D03*
X232000Y286000D02*
D03*
X237906D02*
D03*
X121453Y34500D02*
D03*
X115547D02*
D03*
X145953Y105000D02*
D03*
X140047D02*
D03*
X173547Y149000D02*
D03*
X179453D02*
D03*
X41094Y324500D02*
D03*
X47000D02*
D03*
X27500Y367000D02*
D03*
X33406D02*
D03*
X39595Y256000D02*
D03*
X45500D02*
D03*
X48500Y280500D02*
D03*
X54405D02*
D03*
X21595Y272500D02*
D03*
X27500D02*
D03*
X13547Y334500D02*
D03*
X19453D02*
D03*
X92500Y380000D02*
D03*
X98405D02*
D03*
X119047Y362500D02*
D03*
X124953D02*
D03*
X100047Y338000D02*
D03*
X105953D02*
D03*
X144953Y293500D02*
D03*
X139047D02*
D03*
X148500Y313000D02*
D03*
X154405D02*
D03*
X137953Y275000D02*
D03*
X132047D02*
D03*
X170453Y235000D02*
D03*
X164547D02*
D03*
X225953Y79500D02*
D03*
X220047D02*
D03*
X212405Y92500D02*
D03*
X206500D02*
D03*
X229906Y110000D02*
D03*
X224000D02*
D03*
X255906Y16000D02*
D03*
X250000D02*
D03*
X236500Y19500D02*
D03*
X230594D02*
D03*
X254906Y38500D02*
D03*
X249000D02*
D03*
D19*
X204500Y154453D02*
D03*
Y148547D02*
D03*
D20*
X180807Y193500D02*
D03*
X194193D02*
D03*
D24*
X266500Y225122D02*
D03*
Y193626D02*
D03*
D25*
Y217248D02*
D03*
Y209374D02*
D03*
D26*
Y201500D02*
D03*
D28*
X295000Y385000D02*
D03*
X70000D02*
D03*
M02*
