G04*
G04 #@! TF.GenerationSoftware,Altium Limited,Altium Designer,22.8.2 (66)*
G04*
G04 Layer_Color=16711935*
%FSLAX25Y25*%
%MOIN*%
G70*
G04*
G04 #@! TF.SameCoordinates,5BBA7AF8-D70B-405A-A25D-C681712A1337*
G04*
G04*
G04 #@! TF.FilePolarity,Negative*
G04*
G01*
G75*
%ADD23C,0.12611*%
%ADD24C,0.06102*%
%ADD25C,0.05118*%
%ADD26R,0.05118X0.05118*%
%ADD27C,0.02769*%
%ADD30R,0.05000X0.20000*%
%ADD31R,0.15600X0.15600*%
D23*
X295000Y385000D02*
D03*
X70000D02*
D03*
D24*
X266500Y225122D02*
D03*
Y193626D02*
D03*
D25*
Y217248D02*
D03*
Y209374D02*
D03*
D26*
Y201500D02*
D03*
D27*
X175519Y152314D02*
D03*
X170622Y222879D02*
D03*
X202000Y209500D02*
D03*
X203500Y216500D02*
D03*
X200000Y221500D02*
D03*
X175987Y225013D02*
D03*
X179500Y221500D02*
D03*
X161000Y216500D02*
D03*
X171000Y212500D02*
D03*
X176000Y197500D02*
D03*
X193500Y187500D02*
D03*
X175000Y190000D02*
D03*
X331000Y323000D02*
D03*
X339500Y329000D02*
D03*
X264500Y352500D02*
D03*
X260500Y342500D02*
D03*
X185500Y224000D02*
D03*
X177000Y141500D02*
D03*
X146500Y80000D02*
D03*
X145000Y73000D02*
D03*
X122000Y39500D02*
D03*
X126000Y35000D02*
D03*
X27500Y278000D02*
D03*
X32500Y327500D02*
D03*
X108000Y349000D02*
D03*
X116500Y351500D02*
D03*
X143000Y316000D02*
D03*
X142000Y309000D02*
D03*
X135000Y280000D02*
D03*
X148500Y279000D02*
D03*
X182000Y234000D02*
D03*
X171000Y215500D02*
D03*
X169500Y205500D02*
D03*
X173000Y181000D02*
D03*
X195000Y155000D02*
D03*
X212500Y163500D02*
D03*
X229000Y118000D02*
D03*
X218500Y107000D02*
D03*
X252000Y19487D02*
D03*
X245500Y16500D02*
D03*
X243000Y8500D02*
D03*
X254000Y10000D02*
D03*
D30*
X139752Y209500D02*
D03*
X226248D02*
D03*
D31*
X183000D02*
D03*
M02*
