M48
;Layer_Color=9474304
;FILE_FORMAT=2:4
INCH,TZ
;TYPE=PLATED
T1F00S00C0.0118
T2F00S00C0.0315
T3F00S00C0.0394
T4F00S00C0.1181
%
T01
X12600Y3500
X12200Y3950
X24550Y1650
X25200Y1949
X25400Y1000
X24300Y850
X21850Y10700
X22900Y11800
X21250Y16350
X19500Y15500
X17552Y15231
X17700Y14150
X17300Y18100
X17500Y19000
X17600Y19750
X16950Y20550
X20200Y20950
X19350Y18750
X14650Y8000
X14500Y7300
X2750Y27800
X3250Y32750
X10800Y34900
X11650Y35150
X14300Y31600
X14200Y30900
X13500Y28000
X14850Y27900
X16100Y21650
X17100Y21550
Y21250
X17062Y22288
X17599Y22501
X17950Y22150
X18550Y22400
X18200Y23400
X20000Y22150
X20350Y21650
X26050Y34250
X26450Y35250
X33100Y32300
X33950Y32900
T02
X26650Y20150
Y20937
Y21725
T03
X26650Y19363
Y22512
T04
X29500Y38500
X7000
M30
